M48
; DRILL file {KiCad 7.0.5} date Sat Mar 23 16:53:33 2024
; FORMAT={-:-/ absolute / metric / decimal}
; #@! TF.CreationDate,2024-03-23T16:53:33+04:00
; #@! TF.GenerationSoftware,Kicad,Pcbnew,7.0.5
; #@! TF.FileFunction,Plated,1,2,PTH
FMAT,2
METRIC
; #@! TA.AperFunction,Plated,PTH,ComponentDrill
T1C0.800
; #@! TA.AperFunction,Plated,PTH,ComponentDrill
T2C1.000
; #@! TA.AperFunction,Plated,PTH,ComponentDrill
T3C1.200
; #@! TA.AperFunction,Plated,PTH,ComponentDrill
T4C1.520
%
G90
G05
T1
X113.03Y74.93
X113.03Y77.47
X113.03Y80.01
X113.03Y82.55
X113.03Y85.09
X113.03Y87.63
X113.03Y90.17
X120.65Y74.93
X120.65Y77.47
X120.65Y80.01
X120.65Y82.55
X120.65Y85.09
X120.65Y87.63
X120.65Y90.17
T2
X63.5Y69.85
X63.5Y77.35
X63.5Y82.55
X63.5Y90.05
X82.55Y76.2
X82.55Y88.9
X83.82Y44.45
X86.36Y44.45
X88.9Y44.45
X90.05Y76.2
X90.05Y88.9
X109.22Y44.45
X111.76Y44.45
X114.3Y44.45
X125.85Y101.6
X133.35Y101.6
X134.62Y44.45
X137.16Y44.45
X139.7Y44.45
X139.7Y57.15
X139.7Y68.7
X139.7Y76.2
X147.2Y57.15
X152.4Y57.15
X159.9Y57.15
X171.45Y95.25
X178.95Y95.25
T3
X57.15Y57.15
X57.15Y63.5
X72.39Y57.15
X72.39Y63.5
X76.2Y73.66
X76.2Y88.9
X82.55Y63.5
X95.25Y76.2
X95.25Y91.44
X97.79Y63.5
X101.6Y76.2
X101.6Y91.44
X105.41Y63.5
X120.65Y63.5
X127.0Y67.31
X127.0Y82.55
X139.7Y80.01
X139.7Y95.25
X149.86Y69.85
X149.86Y76.2
X149.86Y82.55
X149.86Y88.9
X149.86Y95.25
X165.1Y69.85
X165.1Y76.2
X165.1Y82.55
X165.1Y88.9
X165.1Y95.25
T4
X44.45Y76.2
X44.45Y81.28
X109.22Y107.95
X114.3Y107.95
X177.8Y71.12
X177.8Y76.2
T0
M30
